<?xml version="1.0" encoding="utf-8" ?><svg xmlns="http://www.w3.org/2000/svg" xmlns:xlink="http://www.w3.org/1999/xlink" viewBox="0 0 1024 1024"><path fill="#08A2F3" d="M377.518 182.594C403.609 177.21 427.859 179.874 451.366 193.765C470.428 205.028 489.03 217.12 508.238 228.177C508.896 228.569 510.105 229.467 510.681 229.994C510.657 230.946 510.656 231.717 510.676 232.665C510.735 235.238 510.67 237.581 510.845 240.173L510.938 363.947C537.472 365.707 552.492 378.435 574.281 391.82C590.214 401.607 608.454 411.774 623.427 422.672C627.312 425.524 630.872 428.794 634.042 432.424C655.558 456.81 652.214 476.076 652.864 505.752C653.53 536.129 652.117 567.132 653.059 597.401L683.694 615.871C687.021 617.867 694.602 622.799 697.521 624.207C699.861 625.826 713.87 634.593 716.031 635.5C718.057 636.723 723.687 640.323 725.539 641.18C727.804 642.658 735.855 647.623 738.208 648.678L738.547 648.88C740.515 650.076 741.868 651.108 744.008 652.1L744.452 652.338C748.028 654.283 749.468 655.582 753.578 657.134L754.486 656.994L754.609 657.592C753.328 666.339 754.15 687.042 754.063 696.955C753.82 724.549 754.469 752.495 753.971 780.088C745.089 786.548 730.568 794.144 720.57 799.982C699.286 812.414 678.067 824.957 656.914 837.612C648.17 842.864 637.336 848.738 629.134 854.292C627.193 853.107 624.6 852.766 622.328 852.779C598.332 852.906 575.392 838.024 555.471 826.125L513.392 800.792L513.427 800.501C510.41 797.094 472.258 775.696 465.84 771.984L397.413 731.973L311.389 680.964C271.287 656.645 229.662 630.828 188.547 608.233C181.848 604.386 170.411 598.44 164.492 594.481C164.431 586.657 164.323 578.34 164.487 570.574C163.655 542.075 164.765 513.374 164.41 484.852C164.305 476.462 164.154 467.964 164.411 459.585C164.067 454.373 164.328 445.194 164.336 439.779L164.421 401.786L164.457 368.238C164.486 343.304 164.034 334.063 176.221 311.679C190.058 291.284 203.996 284.544 224.531 272.411L263.017 249.603C301.031 227.007 339.199 204.67 377.518 182.594ZM514.406 672.031C515.663 671.992 516.663 672.009 517.902 671.778C524.433 671.275 530.814 669.569 536.723 666.744C543.615 663.48 555.41 655.56 562.287 651.267L603.146 626.109C610.586 621.531 618.067 617.018 625.587 612.572C628.474 610.851 634.781 607.335 637.218 605.366C637.753 603.249 637.753 603.889 639.084 602.18C641.727 598.787 641.211 599.124 644.618 598.493L647.411 599.275C648.545 598.784 650.297 597.833 651.437 597.233L650.783 596.754C648.72 595.221 647.785 594.743 645.716 593.473C610.358 571.393 573.401 551.458 538.027 529.323C534.132 526.886 529.643 524.328 525.566 522.224C524.601 521.567 523.804 521.011 522.76 520.463L521.1 519.599C520.771 519.293 519.399 518.535 518.93 518.26L518.201 518.498C516.682 516.922 516.104 516.612 514.116 515.624C513.209 515.65 512.302 515.661 511.395 515.658C510.524 517.527 510.937 660.41 511.038 672.044L514.406 672.031ZM511.729 514.07C509.944 513.125 505.708 510.54 504.09 509.43C502.419 507.976 493.75 503.055 491.356 501.653C480.027 495.084 468.655 488.59 457.241 482.17C455.805 481.238 454.487 480.461 452.949 479.693C449.197 476.939 434.294 468.815 429.662 466.228C428.157 465.313 426.651 464.405 425.073 463.618L424.17 463.144L422.922 462.31C420.626 461.122 418.411 459.797 416.088 458.592C415.334 457.922 407.204 453.291 405.98 452.601C398.622 448.449 391.348 444.457 384.118 440.05C380.337 446.674 375.681 454.911 374.082 462.386C373.257 464.944 373.126 466.062 372.541 468.534C370.338 480.644 370.845 491.817 370.851 504.056L370.881 543.995L370.821 574.199C370.814 578.725 370.617 587.128 371.016 591.37C371.044 593.799 370.816 595.803 371.484 598.089L372.172 597.876C375.181 595.859 380.331 592.674 383.481 591.002C385.679 590.372 401.299 580.932 403.532 579.335C410.641 575.821 425.574 566.324 432.794 561.879C446.843 553.229 466.244 542.851 479.377 533.562C481.843 533.009 505.103 518.65 507.795 516.445C509.157 515.6 510.368 514.976 511.729 514.07Z"/><defs><linearGradient id="gradient_0" gradientUnits="userSpaceOnUse" x1="489.18619" y1="584.28339" x2="629.14337" y2="634.34277"><stop offset="0" stop-color="white" stop-opacity="0.92941177"/><stop offset="1" stop-color="white" stop-opacity="0.96862745"/></linearGradient></defs><path fill="url(#gradient_0)" d="M511.038 672.044C510.937 660.41 510.524 517.527 511.395 515.658L511.542 516.342C512.294 520.557 515.205 520.892 518.201 518.498L518.93 518.26C519.399 518.535 520.771 519.293 521.1 519.599C521.417 523.172 520.953 523.069 525.127 522.307L525.566 522.224C529.643 524.328 534.132 526.886 538.027 529.323C573.401 551.458 610.358 571.393 645.716 593.473C645.274 595.56 644.658 596.351 644.618 598.493C641.211 599.124 641.727 598.787 639.084 602.18C637.753 603.889 637.753 603.249 637.218 605.366C634.781 607.335 628.474 610.851 625.587 612.572C618.067 617.018 610.586 621.531 603.146 626.109L562.287 651.267C555.41 655.56 543.615 663.48 536.723 666.744C530.814 669.569 524.433 671.275 517.902 671.778C517.373 671.743 516.991 671.773 516.573 671.45C516.154 670.472 517.689 669.96 517.882 669.255C517.773 668.867 517.16 669.043 516.761 668.899C516.009 666.563 517.938 666.128 511.728 668.377C510.193 668.933 513.848 671.532 514.406 672.031L511.038 672.044Z"/><defs><linearGradient id="gradient_1" gradientUnits="userSpaceOnUse" x1="368.95813" y1="512.48798" x2="500.63721" y2="527.75452"><stop offset="0" stop-color="white" stop-opacity="0.80392158"/><stop offset="1" stop-color="white" stop-opacity="0.91764706"/></linearGradient></defs><path fill="url(#gradient_1)" d="M374.082 462.386C375.681 454.911 380.337 446.674 384.118 440.05C391.348 444.457 398.622 448.449 405.98 452.601C407.204 453.291 415.334 457.922 416.088 458.592C416.133 459.067 416.619 460.854 416.536 460.976C414.668 463.729 416.317 463.852 418.539 465.054C420.163 465.932 419.619 463.232 421.054 462.876C421.839 462.727 422.276 462.572 422.922 462.31L424.17 463.144C424.211 463.445 424.773 465.349 424.529 465.46C423.854 465.766 423.652 467.248 424.267 467.533C425.922 468.301 427.383 466.775 429.662 466.228C434.294 468.815 449.197 476.939 452.949 479.693C453.077 480.328 453.478 481.711 452.948 482.292C452.699 483.974 456.301 482.378 457.241 482.17C468.655 488.59 480.027 495.084 491.356 501.653C493.75 503.055 502.419 507.976 504.09 509.43C503.619 516.981 502.603 514.612 507.795 516.445C505.103 518.65 481.843 533.009 479.377 533.562C473.813 534.065 452.655 548.332 444.954 551.009C444.552 551.69 443.021 554.371 442.432 554.706C438.727 556.81 432.595 558.06 429.19 560.353C424.835 563.286 425.142 567.31 418.811 567.78C416.339 569.632 413.921 571.469 411.433 573.309C408.584 575.416 405.215 576.224 403.532 579.335C401.299 580.932 385.679 590.372 383.481 591.002C380.044 585.617 374.899 587.278 371.016 591.37C370.617 587.128 370.814 578.725 370.821 574.199L370.881 543.995L370.851 504.056C370.845 491.817 370.338 480.644 372.541 468.534C375.708 467.851 375.269 464.757 374.082 462.386Z"/><path fill="#FFFFFE" fill-opacity="0.98431373" d="M444.954 551.009C452.655 548.332 473.813 534.065 479.377 533.562C466.244 542.851 446.843 553.229 432.794 561.879C425.574 566.324 410.641 575.821 403.532 579.335C405.215 576.224 408.584 575.416 411.433 573.309C413.921 571.469 416.339 569.632 418.811 567.78C425.142 567.31 424.835 563.286 429.19 560.353C432.595 558.06 438.727 556.81 442.432 554.706C443.021 554.371 444.552 551.69 444.954 551.009Z"/><path fill="#FFFFFE" fill-opacity="0.06666667" d="M504.09 509.43C505.708 510.54 509.944 513.125 511.729 514.07C510.368 514.976 509.157 515.6 507.795 516.445C502.603 514.612 503.619 516.981 504.09 509.43Z"/><path fill="#FFFFFE" fill-opacity="0.6901961" d="M416.088 458.592C418.411 459.797 420.626 461.122 422.922 462.31C422.276 462.572 421.839 462.727 421.054 462.876C419.619 463.232 420.163 465.932 418.539 465.054C416.317 463.852 414.668 463.729 416.536 460.976C416.619 460.854 416.133 459.067 416.088 458.592Z"/><path fill="#FFFFFE" fill-opacity="0.69411767" d="M645.716 593.473C647.785 594.743 648.72 595.221 650.783 596.754L651.437 597.233C650.297 597.833 648.545 598.784 647.411 599.275L644.618 598.493C644.658 596.351 645.274 595.56 645.716 593.473Z"/><path fill="#FFFFFE" fill-opacity="0.73333335" d="M514.406 672.031C513.848 671.532 510.193 668.933 511.728 668.377C517.938 666.128 516.009 666.563 516.761 668.899C517.16 669.043 517.773 668.867 517.882 669.255C517.689 669.96 516.154 670.472 516.573 671.45C516.991 671.773 517.373 671.743 517.902 671.778C516.663 672.009 515.663 671.992 514.406 672.031Z"/><path fill="#FFFFFE" fill-opacity="0.082352944" d="M511.395 515.658C512.302 515.661 513.209 515.65 514.116 515.624C516.104 516.612 516.682 516.922 518.201 518.498C515.205 520.892 512.294 520.557 511.542 516.342L511.395 515.658Z"/><path fill="#FFFFFE" fill-opacity="0.7019608" d="M424.17 463.144L425.073 463.618C426.651 464.405 428.157 465.313 429.662 466.228C427.383 466.775 425.922 468.301 424.267 467.533C423.652 467.248 423.854 465.766 424.529 465.46C424.773 465.349 424.211 463.445 424.17 463.144Z"/><path fill="#FFFFFE" fill-opacity="0.75686276" d="M374.082 462.386C375.269 464.757 375.708 467.851 372.541 468.534C373.126 466.062 373.257 464.944 374.082 462.386Z"/><path fill="#FFFFFE" fill-opacity="0.73725492" d="M521.1 519.599L522.76 520.463C523.804 521.011 524.601 521.567 525.566 522.224L525.127 522.307C520.953 523.069 521.417 523.172 521.1 519.599Z"/><path fill="#FFFFFE" fill-opacity="0.8392157" d="M452.949 479.693C454.487 480.461 455.805 481.238 457.241 482.17C456.301 482.378 452.699 483.974 452.948 482.292C453.478 481.711 453.077 480.328 452.949 479.693Z"/><path fill="#424ADE" d="M510.676 232.665C510.735 235.238 510.67 237.581 510.845 240.173L510.938 363.947C503.858 364.714 495.479 365.22 488.98 368.408C477.354 374.111 465.088 382.346 453.95 389.12L422.318 408.358C415.698 412.395 407.674 417.029 401.511 421.578C396.441 425.383 391.869 429.811 387.903 434.756C386.484 436.532 385.264 438.083 384.118 440.05C380.337 446.674 375.681 454.911 374.082 462.386C373.257 464.944 373.126 466.062 372.541 468.534C370.338 480.644 370.845 491.817 370.851 504.056L370.881 543.995L370.821 574.199C370.814 578.725 370.617 587.128 371.016 591.37C371.044 593.799 370.816 595.803 371.484 598.089L313.297 632.241C300.855 639.697 284.332 650.472 271.912 656.757C272.596 605.172 272.549 552.165 272.28 500.625L271.979 452.548C271.941 441.056 271.673 427.424 273.413 416.39C276.214 398.633 287.986 375.202 301.268 362.904C314.332 350.806 336.699 338.94 352.484 329.237L461.807 262.952C476.498 253.957 496.992 242.346 510.676 232.665Z"/><path fill="#424ADE" d="M753.578 657.134L754.486 656.994L754.609 657.592C753.328 666.339 754.15 687.042 754.063 696.955C753.82 724.549 754.469 752.495 753.971 780.088C745.089 786.548 730.568 794.144 720.57 799.982C699.286 812.414 678.067 824.957 656.914 837.612C648.17 842.864 637.336 848.738 629.134 854.292C627.193 853.107 624.6 852.766 622.328 852.779C598.332 852.906 575.392 838.024 555.471 826.125L513.392 800.792L513.427 800.501C515.584 799.674 523.345 794.959 525.802 793.522C535.379 787.903 544.926 782.236 554.445 776.519L650.174 719.259L714.614 681.018C723.972 675.667 733.241 670.162 742.418 664.506C745.404 662.667 751.141 659.352 753.578 657.134Z"/><path fill="#424ADE" d="M511.729 514.07C512.526 514.563 513.387 515.05 514.116 515.624C513.209 515.65 512.302 515.661 511.395 515.658C510.524 517.527 510.937 660.41 511.038 672.044C503.96 672.11 496.939 670.771 490.382 668.105C478.757 663.411 468.311 655.779 457.55 649.435C435.966 636.71 415.051 622.687 393.347 610.229C390.141 608.389 374.838 598.847 372.172 597.876C375.181 595.859 380.331 592.674 383.481 591.002C385.679 590.372 401.299 580.932 403.532 579.335C410.641 575.821 425.574 566.324 432.794 561.879C446.843 553.229 466.244 542.851 479.377 533.562C481.843 533.009 505.103 518.65 507.795 516.445C509.157 515.6 510.368 514.976 511.729 514.07Z"/><path fill="#2C3BCC" d="M164.411 459.585C164.067 454.373 164.328 445.194 164.336 439.779L164.421 401.786L164.457 368.238C164.486 343.304 164.034 334.063 176.221 311.679C186.545 317.453 198.176 325.555 208.802 331.821C223.946 340.643 238.984 349.647 253.913 358.829C260.056 362.612 267.849 367.13 273.586 371.131C258.199 381.207 241.089 390.485 225.555 400.061C203.013 413.958 177.194 425.692 167.518 452.47C166.938 454.074 165.367 458.31 164.411 459.585Z"/><path fill="#2C3BCC" d="M164.487 570.574C165.835 573.048 166.097 574.97 167.17 577.433C169.392 582.531 172.012 588.057 175.062 592.703C178.913 598.568 184.498 602.553 188.547 608.233C181.848 604.386 170.411 598.44 164.492 594.481C164.431 586.657 164.323 578.34 164.487 570.574Z"/><path fill="#FFFFFE" d="M644.618 598.493L647.411 599.275C643.906 601.095 640.728 603.447 637.218 605.366C637.753 603.249 637.753 603.889 639.084 602.18C641.727 598.787 641.211 599.124 644.618 598.493Z"/><path fill="#08A2F3" d="M512.784 230.855C521.037 225.517 533.231 218.693 541.879 213.493C555.966 205.02 573.807 192.749 588.486 186.91C599.5 182.495 611.185 179.983 623.041 179.482C630.381 179.137 639.109 181.14 646.476 182.087C656.069 187.264 666.268 193.552 675.799 199.094L736.167 234.124C755.405 245.157 774.501 256.438 793.448 267.964C817.192 282.145 832.964 289.026 849.455 312.211C863.588 335.24 860.785 355.898 860.772 381.909C860.76 407.433 861.378 433.685 860.576 459.129L860.624 571.804L860.558 644.757C860.56 669.2 863.431 692.69 848.764 713.953C841.482 710.787 825.234 700.209 817.906 695.74L771.91 668.288C766.065 664.773 760.718 660.466 754.609 657.592L754.486 656.994L754.591 656.04C754.609 653.598 754.515 651.379 754.442 648.946C754.492 648.249 754.541 647.604 754.565 646.905C754.487 643.442 754.624 640.199 754.427 636.709C754.849 623.391 754.48 607.809 754.491 594.262L754.532 509.007L754.569 456.66C754.577 439.353 755.474 425.063 751.975 407.862C741.756 357.618 700.069 344.157 661.098 320.566C627.2 300.045 591.679 279.967 558.09 258.603C552.446 255.118 542.696 248.904 537.059 246.142C535.118 244.293 519.707 235.258 516.613 233.584C515.444 232.865 514.395 232.238 513.247 231.467C512.908 230.981 513.07 231.179 512.784 230.855Z"/><path fill="#2C3BCC" d="M849.455 312.211C863.588 335.24 860.785 355.898 860.772 381.909C860.76 407.433 861.378 433.685 860.576 459.129C857.733 448.77 852.431 439.251 845.12 431.38C832.653 418.186 814.815 409.214 799.21 399.72C783.514 390.191 767.865 380.583 752.266 370.896C784.823 352.364 816.941 331.21 849.455 312.211Z"/><path fill="#2C3BCC" d="M754.591 656.04L755.304 656.443L797.706 631.512C820.681 617.906 846.532 606.341 857.194 580.163C858.329 577.374 859.498 574.599 860.624 571.804L860.558 644.757C860.56 669.2 863.431 692.69 848.764 713.953C841.482 710.787 825.234 700.209 817.906 695.74L771.91 668.288C766.065 664.773 760.718 660.466 754.609 657.592L754.486 656.994L754.591 656.04Z"/><defs><linearGradient id="gradient_2" gradientUnits="userSpaceOnUse" x1="570.67255" y1="554.98895" x2="693.09888" y2="331.8082"><stop offset="0" stop-color="white" stop-opacity="0.96078432"/><stop offset="1" stop-color="white"/></linearGradient></defs><path fill="url(#gradient_2)" d="M510.845 240.173C510.898 239.459 510.981 236.695 511.187 236.157C512.553 235.137 513.67 239.111 513.801 239.267L513.8 239.269C514.161 237.834 515.421 236.229 516.837 236.733C521.164 238.273 517.687 240.757 520.237 243.782C521.25 242.403 519.794 237.986 521.265 237.785C521.456 237.759 524.429 239.215 524.553 239.973L524.452 239.965C524.486 240.221 524.52 240.477 524.554 240.733C524.34 241.408 521.929 242.89 523.598 244.494C525.363 246.19 526.908 246.053 528.551 244.221C530.22 242.36 531.106 243.657 531.9 244.393C531.94 244.369 531.981 244.346 532.021 244.323C532.298 244.973 532.045 245.491 532.369 245.901C533.067 246.133 534.688 244.043 534.694 246.77C534.696 247.344 537.286 247.754 537.846 247.892C540.252 248.709 538.579 248.611 538.647 249.473C539.653 250.786 541.45 249.083 542.13 250.307C542.051 250.494 541.83 250.607 541.694 250.753C541.819 251.487 542.572 251.17 542.812 251.218C543.495 251.356 544.647 252.684 545.453 253.066C546.69 253.652 547.253 252.686 548.317 254.023L548.291 254.223C547.941 254.309 547.603 254.025 547.241 254.094C546.991 254.755 548.124 255.744 545.612 254.414C541.425 252.198 541.895 257.138 546.288 257.779C550.097 258.335 548.043 254.654 551.568 255.877C552.276 257.114 550.842 258.102 550.842 258.104C550.637 263.651 557.144 259.107 558.09 258.603C591.679 279.967 627.2 300.045 661.098 320.566C700.069 344.157 741.756 357.618 751.975 407.862C755.474 425.063 754.577 439.353 754.569 456.66L754.532 509.007L754.491 594.262C754.48 607.809 754.849 623.391 754.427 636.709C753.732 636.749 753.855 636.801 753.435 637.43C751.152 640.845 755.384 638.293 753.906 642.694C752.668 643.619 753.226 641.183 752.621 640.545L752.464 640.578C752.184 641.11 752.335 641.449 752.125 642.038C751.418 642.449 749.83 641.039 748.524 642.265C748.612 642.182 745.645 644.175 745.231 644.252C743.03 644.659 739.859 642.619 737.511 642.461C736.928 642.422 736.84 642.208 736.254 642.4C735.14 642.353 729.755 642.355 729.754 640.776C728.638 641.585 726.913 641.182 725.539 641.18C723.687 640.323 718.057 636.723 716.031 635.5C716.449 633.264 713.607 633.722 712.2 631.947C711.049 629.716 709.779 631.103 709.669 630.848C708.294 627.678 703.73 628.941 702.517 624.024C702.329 623.266 698.323 623.995 697.521 624.207C694.602 622.799 687.021 617.867 683.694 615.871L653.059 597.401C652.117 567.132 653.53 536.129 652.864 505.752C652.214 476.076 655.558 456.81 634.042 432.424C630.872 428.794 627.312 425.524 623.427 422.672C608.454 411.774 590.214 401.607 574.281 391.82C552.492 378.435 537.472 365.707 510.938 363.947L510.845 240.173Z"/><path fill="#2C3BCC" d="M377.518 182.594C389.645 174.105 409.617 163.391 422.697 155.585L457.384 134.606C470.213 126.852 483.395 117.435 498.019 113.704C529.305 105.723 548.141 122.732 572.807 137.653L646.476 182.087C639.109 181.14 630.381 179.137 623.041 179.482C611.185 179.983 599.5 182.495 588.486 186.91C573.807 192.749 555.966 205.02 541.879 213.493C533.231 218.693 521.037 225.517 512.784 230.855C511.833 230.528 511.589 230.429 510.681 229.994C510.105 229.467 508.896 228.569 508.238 228.177C489.03 217.12 470.428 205.028 451.366 193.765C427.859 179.874 403.609 177.21 377.518 182.594Z"/><path fill="#2C3BCC" d="M513.392 800.792L555.471 826.125C575.392 838.024 598.332 852.906 622.328 852.779C624.6 852.766 627.193 853.107 629.134 854.292C608.322 866.503 587.923 879.691 567.165 892.018C557.866 897.352 549.034 904.009 539.244 908.394C524.781 914.874 506.232 915.64 491.28 910.394C482.471 907.303 473.374 901.062 465.352 896.2C457.825 891.71 450.269 887.268 442.684 882.874L414.372 866.058C409.478 863.151 401.378 858.642 397.168 855.275C423.004 853.808 441.678 845.704 463.059 831.562C476.718 822.527 491.585 814.566 505.349 805.656C507.573 804.216 510.165 802.484 512.492 801.258L513.392 800.792Z"/><path fill="#424ADE" d="M271.263 658.106C271.703 660.731 271.667 670.642 271.673 673.704L271.603 704.598L271.658 755.434C271.69 763.693 272.041 772.373 271.8 780.544C266.27 777.691 257.474 771.863 251.797 768.402L212.893 744.805C205.105 739.486 196.132 734.878 189.036 728.487C184.686 724.569 180.497 719.517 176.424 715.151C183.933 709.796 197.407 702.653 205.804 697.619C227.714 684.597 249.534 671.426 271.263 658.106Z"/><path fill="#FFFFFE" fill-opacity="0.57254905" d="M725.539 641.18C726.913 641.182 728.638 641.585 729.754 640.776C729.755 642.355 735.14 642.353 736.254 642.4C736.84 642.208 736.928 642.422 737.511 642.461C739.859 642.619 743.03 644.659 745.231 644.252C745.645 644.175 748.612 642.182 748.524 642.265C749.83 641.039 751.418 642.449 752.125 642.038C752.335 641.449 752.184 641.11 752.464 640.578L752.621 640.545C753.226 641.183 752.668 643.619 753.906 642.694C755.384 638.293 751.152 640.845 753.435 637.43C753.855 636.801 753.732 636.749 754.427 636.709C754.624 640.199 754.487 643.442 754.565 646.905C752.879 646.041 753.793 648.132 750.751 646.961C748.831 646.221 742.421 649.919 739.743 648.443C739.105 648.197 738.775 648.405 738.208 648.678C735.855 647.623 727.804 642.658 725.539 641.18Z"/><path fill="#FFFFFE" fill-opacity="0.71764708" d="M510.681 229.994C511.589 230.429 511.833 230.528 512.784 230.855C513.07 231.179 512.908 230.981 513.247 231.467C511.518 236.075 513.261 236.478 516.613 233.584C519.707 235.258 535.118 244.293 537.059 246.142L537.846 247.892C537.286 247.754 534.696 247.344 534.694 246.77C534.688 244.043 533.067 246.133 532.369 245.901C532.045 245.491 532.298 244.973 532.021 244.323C531.981 244.346 531.94 244.369 531.9 244.393C531.106 243.657 530.22 242.36 528.551 244.221C526.908 246.053 525.363 246.19 523.598 244.494C521.929 242.89 524.34 241.408 524.554 240.733C524.52 240.477 524.486 240.221 524.452 239.965L524.553 239.973C524.429 239.215 521.456 237.759 521.265 237.785C519.794 237.986 521.25 242.403 520.237 243.782C517.687 240.757 521.164 238.273 516.837 236.733C515.421 236.229 514.161 237.834 513.8 239.269L513.801 239.267C513.67 239.111 512.553 235.137 511.187 236.157C510.981 236.695 510.898 239.459 510.845 240.173C510.67 237.581 510.735 235.238 510.676 232.665C510.656 231.717 510.657 230.946 510.681 229.994Z"/><path fill="#FFFFFE" fill-opacity="0.79215688" d="M537.059 246.142C542.696 248.904 552.446 255.118 558.09 258.603C557.144 259.107 550.637 263.651 550.842 258.104C550.842 258.102 552.276 257.114 551.568 255.877C548.043 254.654 550.097 258.335 546.288 257.779C541.895 257.138 541.425 252.198 545.612 254.414C548.124 255.744 546.991 254.755 547.241 254.094C547.603 254.025 547.941 254.309 548.291 254.223L548.317 254.023C547.253 252.686 546.69 253.652 545.453 253.066C544.647 252.684 543.495 251.356 542.812 251.218C542.572 251.17 541.819 251.487 541.694 250.753C541.83 250.607 542.051 250.494 542.13 250.307C541.45 249.083 539.653 250.786 538.647 249.473C538.579 248.611 540.252 248.709 537.846 247.892L537.059 246.142Z"/><path fill="#FFFFFE" fill-opacity="0.34117648" d="M738.208 648.678C738.775 648.405 739.105 648.197 739.743 648.443C742.421 649.919 748.831 646.221 750.751 646.961C753.793 648.132 752.879 646.041 754.565 646.905C754.541 647.604 754.492 648.249 754.442 648.946C752.916 647.96 753.587 650.017 752.51 649.531C748.355 647.659 747.351 649.975 744.363 651.87L744.008 652.1C741.868 651.108 740.515 650.076 738.547 648.88L738.208 648.678Z"/><path fill="#FFFFFE" fill-opacity="0.84313726" d="M697.521 624.207C698.323 623.995 702.329 623.266 702.517 624.024C703.73 628.941 708.294 627.678 709.669 630.848C709.779 631.103 711.049 629.716 712.2 631.947C713.607 633.722 716.449 633.264 716.031 635.5C713.87 634.593 699.861 625.826 697.521 624.207Z"/><path fill="#FFFFFE" fill-opacity="0.54509807" d="M513.247 231.467C514.395 232.238 515.444 232.865 516.613 233.584C513.261 236.478 511.518 236.075 513.247 231.467Z"/></svg>